<svg width="19" height="20" viewBox="0 0 19 20" fill="none" xmlns="http://www.w3.org/2000/svg">
<path d="M9.47259 0.828369C6.92052 0.828369 6.5996 0.840124 5.59687 0.884795C4.59414 0.931816 3.91116 1.08934 3.31282 1.32209C2.6852 1.55816 2.11671 1.92846 1.64709 2.4071C1.16874 2.87696 0.798489 3.44538 0.562081 4.07283C0.329327 4.67 0.17063 5.35415 0.124785 6.35335C0.0801147 7.35843 0.0683594 7.67817 0.0683594 10.2338C0.0683594 12.787 0.0801147 13.1068 0.124785 14.1095C0.171806 15.111 0.329327 15.794 0.562081 16.3924C0.803065 17.0107 1.12398 17.535 1.64709 18.0581C2.16903 18.5812 2.69332 18.9033 3.31164 19.1431C3.91116 19.3759 4.59297 19.5346 5.59452 19.5804C6.59842 19.6251 6.91816 19.6368 9.47259 19.6368C12.027 19.6368 12.3456 19.6251 13.3495 19.5804C14.3499 19.5334 15.0352 19.3759 15.6335 19.1431C16.2608 18.9069 16.8288 18.5366 17.2981 18.0581C17.8212 17.535 18.1421 17.0107 18.3831 16.3924C18.6147 15.794 18.7734 15.111 18.8204 14.1095C18.8651 13.1068 18.8768 12.787 18.8768 10.2326C18.8768 7.67817 18.8651 7.35843 18.8204 6.35453C18.7734 5.35415 18.6147 4.67 18.3831 4.07283C18.1467 3.44536 17.7765 2.87693 17.2981 2.4071C16.8286 1.92828 16.2601 1.55796 15.6324 1.32209C15.0328 1.08934 14.3487 0.93064 13.3483 0.884795C12.3444 0.840124 12.0258 0.828369 9.47024 0.828369H9.47376H9.47259ZM8.62973 2.52348H9.47376C11.9847 2.52348 12.2821 2.53171 13.2731 2.57756C14.19 2.6187 14.6884 2.77269 15.0199 2.90083C15.4584 3.07128 15.7722 3.27582 16.1014 3.60497C16.4305 3.93412 16.6339 4.24681 16.8044 4.68645C16.9337 5.01678 17.0865 5.5152 17.1276 6.43211C17.1735 7.42309 17.1829 7.72049 17.1829 10.2302C17.1829 12.74 17.1735 13.0386 17.1276 14.0296C17.0865 14.9465 16.9325 15.4437 16.8044 15.7752C16.6536 16.1835 16.4129 16.5528 16.1002 16.8555C15.7711 17.1847 15.4584 17.388 15.0187 17.5585C14.6896 17.6878 14.1912 17.8406 13.2731 17.8829C12.2821 17.9276 11.9847 17.9382 9.47376 17.9382C6.96284 17.9382 6.66425 17.9276 5.67328 17.8829C4.75637 17.8406 4.25912 17.6878 3.92762 17.5585C3.51912 17.4079 3.14957 17.1677 2.84613 16.8555C2.53315 16.5523 2.29213 16.1827 2.14082 15.774C2.01268 15.4437 1.85869 14.9453 1.81755 14.0284C1.77288 13.0374 1.76347 12.74 1.76347 10.2279C1.76347 7.71697 1.77288 7.42073 1.81755 6.42976C1.85987 5.51285 2.01268 5.01443 2.14199 4.68293C2.31244 4.24446 2.51699 3.93059 2.84613 3.60144C3.17528 3.27229 3.48797 3.06893 3.92762 2.89848C4.25912 2.76917 4.75637 2.61635 5.67328 2.57403C6.54082 2.53406 6.87702 2.52231 8.62973 2.52113V2.52348ZM14.4933 4.08458C14.3451 4.08458 14.1983 4.11377 14.0614 4.17049C13.9245 4.2272 13.8001 4.31032 13.6953 4.41512C13.5905 4.51991 13.5074 4.64431 13.4507 4.78123C13.394 4.91815 13.3648 5.06489 13.3648 5.21309C13.3648 5.36129 13.394 5.50803 13.4507 5.64495C13.5074 5.78187 13.5905 5.90627 13.6953 6.01107C13.8001 6.11586 13.9245 6.19898 14.0614 6.2557C14.1983 6.31241 14.3451 6.3416 14.4933 6.3416C14.7926 6.3416 15.0796 6.2227 15.2912 6.01107C15.5029 5.79943 15.6218 5.51239 15.6218 5.21309C15.6218 4.91379 15.5029 4.62675 15.2912 4.41512C15.0796 4.20348 14.7926 4.08458 14.4933 4.08458ZM9.47376 5.40353C8.83318 5.39353 8.19702 5.51107 7.6023 5.7493C7.00758 5.98752 6.46619 6.34168 6.00966 6.79115C5.55312 7.24061 5.19057 7.77641 4.94309 8.36734C4.69561 8.95827 4.56817 9.59253 4.56817 10.2332C4.56817 10.8738 4.69561 11.5081 4.94309 12.099C5.19057 12.69 5.55312 13.2258 6.00966 13.6752C6.46619 14.1247 7.00758 14.4788 7.6023 14.7171C8.19702 14.9553 8.83318 15.0728 9.47376 15.0628C10.7416 15.0431 11.9509 14.5255 12.8405 13.6219C13.73 12.7184 14.2287 11.5012 14.2287 10.2332C14.2287 8.96517 13.73 7.74802 12.8405 6.84443C11.9509 5.94085 10.7416 5.42331 9.47376 5.40353ZM9.47376 7.09746C10.3053 7.09746 11.1027 7.42777 11.6906 8.01572C12.2786 8.60367 12.6089 9.40111 12.6089 10.2326C12.6089 11.0641 12.2786 11.8615 11.6906 12.4495C11.1027 13.0374 10.3053 13.3677 9.47376 13.3677C8.64227 13.3677 7.84484 13.0374 7.25689 12.4495C6.66894 11.8615 6.33863 11.0641 6.33863 10.2326C6.33863 9.40111 6.66894 8.60367 7.25689 8.01572C7.84484 7.42777 8.64227 7.09746 9.47376 7.09746Z" fill="#B2B5BA"/>
</svg>
