<svg width="19" height="20" viewBox="0 0 19 20" fill="none" xmlns="http://www.w3.org/2000/svg">
<path d="M0.191406 2.17552C0.191406 1.43142 0.809734 0.828369 1.57265 0.828369H17.6186C18.3815 0.828369 18.9999 1.43142 18.9999 2.17552V18.2897C18.9999 19.0338 18.3815 19.6368 17.6186 19.6368H1.57265C0.809734 19.6368 0.191406 19.0338 0.191406 18.2897V2.17552ZM6.00204 16.5734V8.08021H3.1796V16.5734H6.00204ZM4.59141 6.91996C5.57533 6.91996 6.18778 6.26872 6.18778 5.4529C6.17014 4.61945 5.5765 3.98584 4.61022 3.98584C3.64393 3.98584 3.01268 4.62062 3.01268 5.4529C3.01268 6.26872 3.62513 6.91996 4.5726 6.91996H4.59141ZM10.3609 16.5734V11.8301C10.3609 11.5762 10.3797 11.3223 10.4549 11.1413C10.6583 10.6346 11.1226 10.1092 11.9032 10.1092C12.9247 10.1092 13.3326 10.8874 13.3326 12.03V16.5734H16.1551V11.702C16.1551 9.09234 14.7633 7.87919 12.9059 7.87919C11.4083 7.87919 10.7371 8.70206 10.3609 9.2816V9.31098H10.3421C10.3483 9.30117 10.3546 9.29137 10.3609 9.2816V8.08021H7.53964C7.5749 8.87721 7.53964 16.5734 7.53964 16.5734H10.3609Z" fill="#B2B5BA"/>
</svg>
