<svg width="22" height="19" viewBox="0 0 22 19" fill="none" xmlns="http://www.w3.org/2000/svg">
<path d="M6.83356 18.5046C15.0431 18.5046 19.534 11.7024 19.534 5.81376C19.534 5.62341 19.534 5.43034 19.5258 5.23999C20.4001 4.60705 21.1547 3.82345 21.7543 2.92588C20.9375 3.28598 20.0721 3.52331 19.1859 3.63017C20.1193 3.07223 20.8184 2.19435 21.1533 1.1597C20.2763 1.67926 19.3164 2.04398 18.3157 2.2379C17.643 1.5214 16.7527 1.04674 15.7828 0.887446C14.813 0.728151 13.8177 0.893108 12.951 1.35677C12.0844 1.82043 11.3949 2.55691 10.9892 3.45214C10.5836 4.34737 10.4844 5.35139 10.7072 6.30867C8.93249 6.21968 7.19633 5.75865 5.6113 4.95547C4.02626 4.1523 2.62776 3.02492 1.50648 1.64646C0.937255 2.62959 0.763539 3.79251 1.02061 4.89908C1.27768 6.00564 1.94626 6.97289 2.8906 7.6044C2.18296 7.58036 1.49087 7.39034 0.87017 7.04967V7.11085C0.87139 8.14075 1.22817 9.13865 1.88021 9.93586C2.53225 10.7331 3.43955 11.2807 4.44875 11.4862C4.06568 11.5917 3.66998 11.6443 3.27266 11.6425C2.99255 11.6434 2.713 11.6174 2.43784 11.565C2.72307 12.4516 3.27847 13.2267 4.02623 13.7819C4.774 14.3371 5.67668 14.6444 6.60786 14.6609C5.02599 15.9034 3.07197 16.5772 1.06052 16.574C0.70609 16.5754 0.351907 16.555 0 16.5128C2.04152 17.8143 4.41244 18.5054 6.83356 18.5046Z" fill="#B2B5BA"/>
</svg>
